<svg viewBox="0 0 100 100" xmlns="http://www.w3.org/2000/svg" cleanup="true"><defs><style>.cls-1{fill:#225896;}</style> <style type="text/css"><![CDATA[ circle { fill: #808080; animation: pulse 2s infinite; } #circle-2 { animation-delay: 0.2s; } #circle-3 { animation-delay: 0.4s; } #circle-4 { animation-delay: 0.6s; } #circle-5 { animation-delay: 0.8s; } #circle-7 { animation-delay: 0.6s; } #circle-8 { animation-delay: 0.4s; } #circle-9 { animation-delay: 0.2s; } @keyframes pulse { 0% { opacity: 1; } 50% { opacity: 0.4; } 100% { opacity: 1; } } ]]></style> </defs><symbol viewBox="0 0 24 24" id="icon-add"><title>add</title> <path fill="currentColor" d="M12,11h5v1h-5v5h-1v-5H6v-1h5V6h1V11z M23,11.5C23,17.9,17.9,23,11.5,23S0,17.9,0,11.5C0,5.1,5.1,0,11.5,0
	S23,5.1,23,11.5z M22,11.5C22,5.7,17.3,1,11.5,1S1,5.7,1,11.5S5.7,22,11.5,22S22,17.3,22,11.5z"/> </symbol><symbol viewBox="0 0 24 24" id="icon-automobile"><title>automobile</title> <path fill="currentColor" d="M6,18v2c0,1.1-0.9,2-2,2H3c-1.1,0-2-0.9-2-2v-2h1v2c0,0.6,0.4,1,1,1h1c0.6,0,1-0.4,1-1v-2H6z M22,18v2
	c0,0.6-0.4,1-1,1h-1c-0.6,0-1-0.4-1-1v-2h-1v2c0,1.1,0.9,2,2,2h1c1.1,0,2-0.9,2-2v-2H22z M7.7,5L6.4,9h11.2l-1.5-4H7.7z M16.4,4
	c0.3,0,0.7,0.3,0.8,0.6l1.6,4.9c0.1,0.3-0.1,0.6-0.4,0.6H5.6c-0.3,0-0.5-0.3-0.4-0.6l1.6-4.9C6.9,4.3,7.3,4,7.6,4H16.4L16.4,4z
	 M24,12v4c0,0.6-0.4,1-1,1H1c-0.6,0-1-0.4-1-1v-4c0-1.8,1.2-3.4,2.9-3.8l1.8-4.7C5.1,2.7,6.1,2,6.9,2h10.1c0.9,0,1.9,0.7,2.2,1.5
	l1.8,4.7C22.8,8.6,24,10.2,24,12z M23,12c0-1.5-1.2-2.8-2.7-3l-2-5.2C18.1,3.3,17.5,3,17,3h0H6.9c-0.5,0-1,0.3-1.3,0.9L3.6,9
	C2.2,9.2,1,10.5,1,12v4h22V12z M5.5,12C6.3,12,7,12.7,7,13.5S6.3,15,5.5,15S4,14.3,4,13.5S4.7,12,5.5,12L5.5,12z M18.5,12
	c0.8,0,1.5,0.7,1.5,1.5S19.3,15,18.5,15S17,14.3,17,13.5S17.7,12,18.5,12L18.5,12z"/> </symbol><symbol viewBox="0 0 24 24" id="icon-ban"><title>ban</title><g> <path fill="currentColor" d="M12,1C5.9,1,1,5.9,1,12s4.9,11,11,11s11-4.9,11-11S18.1,1,12,1z M5,12c0-3.9,3.1-7,7-7
c1.2,0,2.3,0.3,3.3,0.8l-9.5,9.5C5.3,14.3,5,13.2,5,12z M12,19c-1.2,0-2.3-0.3-3.3-0.8l9.5-9.5c0.5,1,0.8,2.1,0.8,3.3
C19,15.9,15.9,19,12,19z"/> </g></symbol><symbol viewBox="0 0 24 24" id="icon-bar-chart"><title>bar-chart</title> <path fill="currentColor" d="M23,1v22H1V1H23 M23,0H1C0.4,0,0,0.4,0,1v22c0,0.6,0.4,1,1,1h22c0.6,0,1-0.4,1-1V1C24,0.4,23.6,0,23,0L23,0z
	 M5,17H4v5h1V17z M10,10H9v12h1V10z M15,13h-1v9h1V13z M20,5h-1v17h1V5z"/> </symbol><symbol viewBox="0 0 24 24" id="icon-bulb"><title>bulb</title> <path fill="currentColor" d="M17,8.2c0.1,0.3,0,0.5-0.3,0.6l-10,3.5c-0.1,0-0.1,0-0.2,0c-0.2,0-0.4-0.1-0.5-0.3c-0.1-0.3,0-0.5,0.3-0.6
	l10-3.5C16.6,7.8,16.9,8,17,8.2z M16.3,4.9l-10,3.5C6.1,8.5,5.9,8.8,6,9.1c0.1,0.2,0.3,0.3,0.5,0.3c0.1,0,0.1,0,0.2,0l10-3.5
	c0.3-0.1,0.4-0.4,0.3-0.6C16.9,5,16.6,4.8,16.3,4.9z M6.5,6.4c0.1,0,0.1,0,0.2,0l10-3.5c0.3-0.1,0.4-0.4,0.3-0.6
	c-0.1-0.3-0.4-0.4-0.6-0.3l-10,3.5C6.1,5.5,5.9,5.8,6,6.1C6.1,6.3,6.3,6.4,6.5,6.4z M6.5,3.4c0.1,0,0.1,0,0.2,0l7-2.4
	c0.3-0.1,0.4-0.4,0.3-0.6c-0.1-0.3-0.4-0.4-0.6-0.3l-7,2.4C6.1,2.5,5.9,2.8,6,3.1C6.1,3.3,6.3,3.4,6.5,3.4z M17,11.2
	c0.1,0.3,0,0.5-0.3,0.6L10,14.2V16h3v-1.5l1-0.3V16h1c0.6,0,1,0.4,1,1v2c0,1.3-1,2.4-2,2.8V23c0,0.6-0.4,1-1,1h-3c-0.6,0-1-0.4-1-1
	v-1.2c-1-0.4-2-1.5-2-2.8v-2c0-0.6,0.4-1,1-1h1v-2.2c0-0.2,0.1-0.4,0.3-0.5l7-2.4C16.6,10.8,16.9,11,17,11.2z M8,17v2c0,1.1,1,2,2,2
	v2h3v-2c1,0,2-0.9,2-2v-2H8z"/> </symbol><symbol viewBox="0 0 24 24" id="icon-calendar"><title>calendar</title> <path fill="currentColor" d="M24,4v19c0,0.5-0.5,1-1,1H1c-0.5,0-1-0.5-1-1V4c0-0.5,0.5-1,1-1h4v1H1v19h22V4h-4V3h4C23.5,3,24,3.5,24,4z M7,0
	H6v5h1V0z M18,0h-1v5h1V0z M13,7h-2v2h2V7z M17,7h-2v2h2V7z M21,7h-2v2h2V7z M5,11H3v2h2V11z M9,11H7v2h2V11z M13,11h-2v2h2V11z
	 M17,11h-2v2h2V11z M21,11h-2v2h2V11z M5,15H3v2h2V15z M9,15H7v2h2V15z M11,17h2v-2h-2V17z M15,17h2v-2h-2V17z M21,15h-2v2h2V15z
	 M3,21h2v-2H3V21z M7,21h2v-2H7V21z M8,3v1h8V3"/> </symbol><symbol viewBox="0 0 12 11" id="icon-caret-down"><title>caret-down</title> <path d="M2,4l4,4l4-4H2z"/> </symbol><symbol viewBox="0 0 6 16" id="icon-caret-left"><title>caret-left</title> <path fill="currentColor" d="M0 7.998l5.996 5.996v-11.992l-5.996 5.996z"/> </symbol><symbol viewBox="0 0 6 16" id="icon-caret-right"><title>caret-right</title> <path d="M0.5,3l5,5l-5,5C0.5,13,0.5,3,0.5,3z"/> </symbol><symbol viewBox="0 0 12 16" id="icon-caret-up"><title>caret-up</title> <path fill="currentColor" d="M5.996 4l-5.996 5.996h11.992l-5.996-5.996z"/> </symbol><symbol viewBox="0 0 24 24" id="icon-caution"><title>caution</title><g transform="translate(0, 0)"> <circle fill="none" stroke="currentColor" stroke-width="2" stroke-linecap="round" stroke-miterlimit="10" cx="12" cy="12" r="11" stroke-linejoin="round"/> <line data-color="color-2" fill="none" stroke="currentColor" stroke-width="2" stroke-linecap="round" stroke-miterlimit="10" x1="12" y1="7" x2="12" y2="13" stroke-linejoin="round"/> <line data-color="color-2" fill="none" stroke="currentColor" stroke-width="2" stroke-linecap="round" stroke-miterlimit="10" x1="12" y1="16" x2="12" y2="17" stroke-linejoin="round"/> </g></symbol><symbol viewBox="0 0 24 24" id="icon-chat"><title>chat</title><g transform="translate(0, 0)"> <path fill="none" stroke="currentColor" stroke-width="2" stroke-linecap="square" stroke-miterlimit="10" d="M20.4,16.8
C22,15.2,23,13.2,23,11c0-5-4.9-9-11-9S1,6,1,11c0,5,4.9,9,11,9c1.1,0,2.1-0.1,3.1-0.4L21,22L20.4,16.8z" stroke-linejoin="miter"/> </g></symbol><symbol viewBox="0 0 18 18" id="icon-circle-check"><title>circle-check</title> <path id="circle-check-Combined-Shape" d="M7.1,11.3L5.2,9.4l1.3-1.3l1.3,1.3l3.8-3.8l1.3,1.3l-5,5L7.1,11.3z M9,17c4.4,0,8-3.6,8-8s-3.6-8-8-8
	S1,4.6,1,9S4.6,17,9,17z"/> </symbol><symbol viewBox="0 0 16 16" id="icon-circle"><title>circle</title> <path fill="currentColor" d="M16 8c0 4.418-3.582 8-8 8s-8-3.582-8-8c0-4.418 3.582-8 8-8s8 3.582 8 8z"/> </symbol><symbol viewBox="0 0 24 24" id="icon-clipboard"><title>clipboard</title> <path fill="currentColor" d="M19,2h-1V0h-1v2h-2V0h-1v2h-2V0h-1v2H9V0H8v2H6V0H5v2H4C3.4,2,3,2.4,3,3v20c0,0.6,0.4,1,1,1h15c0.6,0,1-0.4,1-1
	V3C20,2.4,19.6,2,19,2z M19,23H4V3h15V23z M13,8H6V7h7V8z M15,12H6v-1h9V12z M6,15h11v1H6V15z M6,19h11v1H6V19z"/> </symbol><symbol viewBox="0 0 24 24" id="icon-desk-phone"><title>desk-phone</title> <path fill="currentColor" d="M20,13v3h-6v-3H20 M20.5,12h-7c-0.3,0-0.5,0.2-0.5,0.5v4c0,0.3,0.2,0.5,0.5,0.5h7c0.3,0,0.5-0.2,0.5-0.5v-4
	C21,12.2,20.8,12,20.5,12L20.5,12z M21,20h-8v1h8V20z M21,18h-8v1h8V18z M23,9H11V0h-1v20H4V5h5V4H4C3.4,4,3,4.4,3,5v4H1
	c-0.6,0-1,0.4-1,1v13c0,0.6,0.4,1,1,1h22c0.6,0,1-0.4,1-1V10C24,9.4,23.6,9,23,9z M23,23H1V10h2v10c0,0.6,0.4,1,1,1h6
	c0.6,0,1-0.4,1-1V10h12V23z"/> </symbol><symbol viewBox="0 0 24 24" id="icon-document"><title>document</title><g transform="translate(0, 0)"> <polyline data-cap="butt" fill="none" stroke="currentColor" stroke-width="2" stroke-miterlimit="10" points="15,23 15,17 21,17 " stroke-linejoin="miter" stroke-linecap="butt"/> <polygon fill="none" stroke="currentColor" stroke-width="2" stroke-linecap="square" stroke-miterlimit="10" points="15,23 3,23 3,1 
21,1 21,17 " stroke-linejoin="miter"/> </g></symbol><symbol viewBox="0 0 16 16" id="icon-download"><title>Download</title>  <path fill="currentColor" d="M7,7.66,5.86,6.53A1,1,0,0,0,4.45,7.94l2.84,2.84a1,1,0,0,0,.7.29,1,1,0,0,0,.7-.29l2.84-2.84a1,1,0,0,0-1.41-1.41L9,7.65V2A1,1,0,0,0,7,2ZM1,14a1,1,0,0,1,1-1H14a1,1,0,1,1,0,2H2A1,1,0,0,1,1,14Z"/> </symbol><symbol viewBox="0 0 37 24" id="icon-email-alt"><title>email-alt</title> <path fill="currentColor" d="M23,5H1C0.4,5,0,5.4,0,6v12c0,0.6,0.4,1,1,1h22c0.6,0,1-0.4,1-1V6C24,5.4,23.6,5,23,5z M23,18H1V6h22V18z
	 M11.7,14.9l-9-6.5l0.6-0.8l8.7,6.3l8.7-6.3l0.6,0.8l-9,6.5C12.2,15,12.1,15,12,15S11.8,15,11.7,14.9z M37,6v1H25V6H37z M25,10h9v1
	h-9V10z M25,14h6v1h-6V14z"/> </symbol><symbol viewBox="0 0 24 24" id="icon-email"><title>email</title><g transform="translate(0, 0)"> <polyline fill="none" stroke="currentColor" stroke-width="2" stroke-linecap="square" stroke-miterlimit="10" points="1,8 1,21 23,21 
23,8 " stroke-linejoin="miter"/> <polygon data-color="color-2" fill="none" stroke="currentColor" stroke-width="2" stroke-linecap="square" stroke-miterlimit="10" points="
23,8 23,3 1,3 1,8 12,14 " stroke-linejoin="miter"/> </g></symbol><symbol viewBox="0 0 19.15 17.37" id="icon-external-link"><title>external-icon</title><path class="cls-1" d="M8.55 12.64h-7.12v-8.07h7.12v2.23h1.43v-3.66h-9.98v10.93h9.98v-3.66h-1.43v2.23zM13.15 6.23h-1.01l2.01 1.99h-9.8v.76h9.8l-2.01 2h1.01l2.38-2.37-2.38-2.38z"/></symbol><symbol viewBox="0 0 24 24" id="icon-factory"><title>factory</title> <path fill="currentColor" d="M16,22h-1v-7c0-0.6,0.4-1,1-1h4c0.6,0,1,0.4,1,1v7h-1v-7h-4V22z M24,5.5V12v11c0,0.6-0.4,1-1,1H4H1
	c-0.6,0-1-0.4-1-1V12V3c0-0.6,0.4-1,1-1h3c0.6,0,1,0.4,1,1v6v1.6l8.2-5.5c0.2-0.1,0.4-0.1,0.5,0C13.9,5.1,14,5.3,14,5.5v5.1l9.2-5.5
	c0.2-0.1,0.3-0.1,0.5,0C23.9,5.2,24,5.3,24,5.5z M23,6.4l-9.2,5.5c-0.2,0.1-0.3,0.1-0.5,0c-0.2-0.1-0.3-0.3-0.3-0.4V6.4l-8.2,5.5
	c-0.2,0.1-0.4,0.1-0.5,0C4.1,11.9,4,11.7,4,11.5V3H1v20h22V6.4z"/> </symbol><symbol viewBox="0 0 24 24" id="icon-feedback"><title>feedback</title> <path fill="currentColor" d="M6,8.5C6,7.7,6.7,7,7.5,7S9,7.7,9,8.5S8.3,10,7.5,10S6,9.3,6,8.5z M12.5,10c0.8,0,1.5-0.7,1.5-1.5
	S13.3,7,12.5,7C11.7,7,11,7.7,11,8.5S11.7,10,12.5,10z M17.5,10c0.8,0,1.5-0.7,1.5-1.5S18.3,7,17.5,7S16,7.7,16,8.5S16.7,10,17.5,10
	z M24,1v15c0,0.6-0.4,1-1,1H8.2L0,24v-8v-4V1c0-0.6,0.4-1,1-1h22C23.6,0,24,0.4,24,1z M23,1H1v20.8L7.8,16H23V1z"/> </symbol><symbol viewBox="0 0 24 24" id="icon-filter"><title>filter</title> <path fill="currentColor" d="M7.9,6C7.7,4.9,6.7,4,5.5,4S3.3,4.9,3.1,6H0v1h3.1c0.2,1.1,1.2,2,2.4,2s2.2-0.9,2.4-2H24V6H7.9z M5.5,8
	C4.7,8,4,7.3,4,6.5S4.7,5,5.5,5S7,5.7,7,6.5S6.3,8,5.5,8z M16.5,10c-1.2,0-2.2,0.9-2.4,2H0v1h14.1c0.2,1.1,1.2,2,2.4,2
	s2.2-0.9,2.4-2H24v-1h-5.1C18.7,10.9,17.7,10,16.5,10z M16.5,14c-0.8,0-1.5-0.7-1.5-1.5s0.7-1.5,1.5-1.5s1.5,0.7,1.5,1.5
	S17.3,14,16.5,14z M8.5,16c-1.2,0-2.2,0.9-2.4,2H0v1h6.1c0.2,1.1,1.2,2,2.4,2s2.2-0.9,2.4-2H24v-1H10.9C10.7,16.9,9.7,16,8.5,16z
	 M8.5,20C7.7,20,7,19.3,7,18.5S7.7,17,8.5,17s1.5,0.7,1.5,1.5S9.3,20,8.5,20z"/> </symbol><symbol viewBox="0 0 16 16" id="icon-github"><title>Github</title>  <path fill="currentColor" d="M8,1A7.08,7.08,0,0,0,1,8.17,7.23,7.23,0,0,0,5.75,15a.37.37,0,0,0,.47-.35V13.41c-1.93.44-2.35-1-2.35-1a1.81,1.81,0,0,0-.77-1.06c-.64-.44,0-.44,0-.44a1.5,1.5,0,0,1,1.07.75,1.46,1.46,0,0,0,2,.62,1.55,1.55,0,0,1,.43-1c-1.54-.18-3.17-.79-3.17-3.56a2.77,2.77,0,0,1,.73-1.94A2.57,2.57,0,0,1,4.3,3.95s.6-.18,1.93.75A5.83,5.83,0,0,1,8,4.48a7.68,7.68,0,0,1,1.76.22c1.33-.92,1.93-.75,1.93-.75a2.83,2.83,0,0,1,.09,1.89,2.89,2.89,0,0,1,.73,1.94c0,2.77-1.63,3.34-3.17,3.52a1.71,1.71,0,0,1,.47,1.32v2a.37.37,0,0,0,.47.35A7.19,7.19,0,0,0,8,1Z"/> </symbol><symbol viewBox="0 0 24 24" id="icon-global"><title>global</title> <path fill="currentColor" d="M11.5,1C17.3,1,22,5.7,22,11.5S17.3,22,11.5,22S1,17.3,1,11.5S5.7,1,11.5,1 M11.5,0C5.1,0,0,5.1,0,11.5
	C0,17.9,5.1,23,11.5,23S23,17.9,23,11.5C23,5.1,17.9,0,11.5,0L11.5,0z M17.3,16c0.4-1.3,0.6-2.6,0.7-4h3c0-0.2,0-0.3,0-0.5
	s0-0.3,0-0.5h-3c0-1.4-0.3-2.7-0.7-4h2.6c-0.2-0.3-0.4-0.7-0.6-1H17c-0.4-1.1-1-2.2-1.7-3.2c-0.5-0.2-1.1-0.4-1.7-0.6
	c0.9,1.1,1.7,2.4,2.3,3.8H12V2c-0.2,0-0.3,0-0.5,0S11.2,2,11,2v4H7.1c0.6-1.4,1.4-2.6,2.3-3.8C8.8,2.4,8.2,2.6,7.7,2.8
	C7,3.8,6.5,4.9,6,6H3.8C3.5,6.3,3.3,6.7,3.1,7h2.6C5.3,8.3,5,9.6,5,11H2c0,0.2,0,0.3,0,0.5s0,0.3,0,0.5h3c0,1.4,0.3,2.7,0.7,4H3.1
	c0.2,0.3,0.4,0.7,0.6,1H6c0.4,1.1,1,2.2,1.7,3.2c0.5,0.2,1.1,0.4,1.7,0.6c-0.9-1.1-1.7-2.4-2.3-3.8H11v4c0.2,0,0.3,0,0.5,0
	s0.3,0,0.5,0v-4h3.9c-0.6,1.4-1.4,2.6-2.3,3.8c0.6-0.1,1.2-0.3,1.7-0.6c0.7-1,1.2-2.1,1.7-3.2h2.3c0.2-0.3,0.4-0.7,0.6-1H17.3z
	 M11,16H6.7C6.3,14.7,6,13.4,6,12h5V16z M11,11H6c0-1.4,0.3-2.7,0.7-4H11V11z M16.3,16H12v-4h5C17,13.4,16.7,14.7,16.3,16z M12,11V7
	h4.3c0.4,1.3,0.7,2.6,0.7,4H12z"/> </symbol><symbol viewBox="0 0 24 24" id="icon-graph-chart"><title>graph-chart</title> <path fill="currentColor" d="M23,0H1C0.4,0,0,0.4,0,1v22c0,0.6,0.4,1,1,1h22c0.6,0,1-0.4,1-1V1C24,0.4,23.6,0,23,0z M23,23H1V1h22V23z
	 M3.4,21.2l-0.9-0.4l3-6c0.1-0.2,0.2-0.3,0.4-0.3c0.2,0,0.4,0.1,0.4,0.2l2.5,4.2l3.6-8.1c0.1-0.2,0.2-0.3,0.4-0.3
	c0.2,0,0.3,0,0.4,0.1l2.5,2.5l4.7-10.3l0.9,0.4l-5,11c-0.1,0.1-0.2,0.3-0.4,0.3c-0.2,0-0.3,0-0.4-0.1l-2.5-2.5l-3.7,8.3
	c-0.1,0.2-0.2,0.3-0.4,0.3c-0.2,0-0.4-0.1-0.5-0.2L6,16L3.4,21.2z"/> </symbol><symbol viewBox="0 0 24 24" id="icon-home"><title>home</title> <path fill="currentColor" d="M19,11h1v11c0,0.6-0.4,1-1,1H5c-0.6,0-1-0.4-1-1V11h1v11h14V11z M10,21v-8h4v8h1v-8c0-0.6-0.4-1-1-1h-4
	c-0.6,0-1,0.4-1,1v8H10z M23.3,11.6l-11-10c-0.2-0.2-0.5-0.2-0.7,0l-11,10l0.7,0.7L12,2.7l10.7,9.7L23.3,11.6z"/> </symbol><symbol viewBox="0 0 24 24" id="icon-legal"><title>legal</title> <path fill="currentColor" d="M10.3,12.8l0.7,0.7l-9.6,9.6l-0.7-0.7L10.3,12.8z M23.2,12.7l-6.6,6.6c-0.4,0.4-1,0.4-1.4,0l-1-1
	c-0.4-0.4-0.4-1,0-1.4l0.1-0.1L7.1,9.6L7,9.7c-0.4,0.4-1,0.4-1.4,0l-1-1c-0.4-0.4-0.4-1,0-1.4l6.6-6.6c0.4-0.4,1-0.4,1.4,0l1,1
	c0.4,0.4,0.4,1,0,1.4l-0.1,0.1l7.2,7.2l0.1-0.1c0.4-0.4,1-0.4,1.4,0l1,1C23.6,11.7,23.6,12.3,23.2,12.7z M6.4,9L13,2.4
	c0,0,0-0.1,0-0.1l-1-1c0,0-0.1,0-0.1,0L5.2,7.9c0,0,0,0.1,0,0.1l1,1C6.3,9.1,6.3,9.1,6.4,9z M7.8,9l7.1,7.1L20,11l-7.1-7.1L7.8,9z
	 M22.6,11.9l-1-1c0,0-0.1,0-0.1,0l-6.6,6.6c0,0,0,0.1,0,0.1l1,1c0,0,0.1,0,0.1,0l6.6-6.6C22.6,12,22.6,12,22.6,11.9z"/> </symbol><symbol viewBox="0 0 24 24" id="icon-link"><title>link</title><g transform="translate(0, 0)"> <path fill="none" stroke="currentColor" stroke-width="2" stroke-linecap="square" stroke-miterlimit="10" d="M11,6l2.5-2.5
c1.9-1.9,5.1-1.9,7,0l0,0c1.9,1.9,1.9,5.1,0,7L18,13" stroke-linejoin="miter"/> <path fill="none" stroke="currentColor" stroke-width="2" stroke-linecap="square" stroke-miterlimit="10" d="M13,18l-2.5,2.5
c-1.9,1.9-5.1,1.9-7,0l0,0c-1.9-1.9-1.9-5.1,0-7L6,11" stroke-linejoin="miter"/> <line data-color="color-2" fill="none" stroke="currentColor" stroke-width="2" stroke-linecap="square" stroke-miterlimit="10" x1="9" y1="15" x2="15" y2="9" stroke-linejoin="miter"/> </g></symbol><symbol viewBox="0 0 105 105" id="icon-loader"><title>loader</title>  <circle cx="12.5" cy="12.5" r="12.5" id="loader-circle-1"/> <circle cx="12.5" cy="52.5" r="12.5" id="loader-circle-2"/> <circle cx="52.5" cy="12.5" r="12.5" id="loader-circle-3"/> <circle cx="52.5" cy="52.5" r="12.5" id="loader-circle-4"/> <circle cx="92.5" cy="12.5" r="12.5" id="loader-circle-5"/> <circle cx="92.5" cy="52.5" r="12.5" id="loader-circle-6"/> <circle cx="12.5" cy="92.5" r="12.5" id="loader-circle-7"/> <circle cx="52.5" cy="92.5" r="12.5" id="loader-circle-8"/> <circle cx="92.5" cy="92.5" r="12.5" id="loader-circle-9"/> </symbol><symbol viewBox="0 0 24 24" id="icon-lock"><title>Artboard 1</title>  <path fill="none" stroke="currentColor" stroke-width="2" class="st0" d="M17,9V6c0-2.8-2.2-5-5-5l0,0C9.2,1,7,3.2,7,6v3"/> <path fill="none" stroke="currentColor" stroke-width="2" class="st0" d="M5,9h14c0.6,0,1,0.4,1,1v12c0,0.6-0.4,1-1,1H5c-0.6,0-1-0.4-1-1V10C4,9.4,4.4,9,5,9z"/> </symbol><symbol viewBox="0 0 12 16" id="icon-menu"><title>menu</title> <path fill="currentColor" d="M0 3v2h12v-2h-12zM0 9h12v-2h-12v2zM0 13h12v-2h-12v2z"/> </symbol><symbol viewBox="0 0 24 24" id="icon-mobile"><title>mobile</title> <path fill="currentColor" d="M23,6h-1c0-2.8-2.2-5-5-5V0C20.3,0,23,2.7,23,6z M17,3v1c1.1,0,2,0.9,2,2h1C20,4.3,18.7,3,17,3z M18,6v17
	c0,0.6-0.4,1-1,1H7c-0.6,0-1-0.4-1-1V6c0-0.6,0.4-1,1-1h10C17.6,5,18,5.4,18,6z M17,6H7v17h10V6z M8,18.5v-11C8,7.2,8.2,7,8.5,7h7
	C15.8,7,16,7.2,16,7.5v11c0,0.3-0.2,0.5-0.5,0.5h-7C8.2,19,8,18.8,8,18.5z M9,18h6V8H9V18z M12,20c-0.6,0-1,0.4-1,1c0,0.6,0.4,1,1,1
	s1-0.4,1-1C13,20.4,12.6,20,12,20z"/> </symbol><symbol viewBox="0 0 24 24" id="icon-more"><title>more</title> <path fill="currentColor" d="M6,12c0,1.1-0.9,2-2,2s-2-0.9-2-2c0-1.1,0.9-2,2-2S6,10.9,6,12z M12,10c-1.1,0-2,0.9-2,2c0,1.1,0.9,2,2,2
	s2-0.9,2-2C14,10.9,13.1,10,12,10z M20,10c-1.1,0-2,0.9-2,2c0,1.1,0.9,2,2,2s2-0.9,2-2C22,10.9,21.1,10,20,10z"/> </symbol><symbol viewBox="0 0 24 24" id="icon-news"><title>news</title> <path fill="currentColor" d="M7.5,9h5C12.8,9,13,8.8,13,8.5v-5C13,3.2,12.8,3,12.5,3h-5C7.2,3,7,3.2,7,3.5v5C7,8.8,7.2,9,7.5,9z M8,4h4v4H8
	V4z M21,6h-6V5h6V6z M21,9h-6V8h6V9z M21,12H7v-1h14V12z M21,15H7v-1h14V15z M21,18H7v-1h14V18z M23.3,0H4.7C4.3,0,4,0.3,4,0.7V3
	H0.8C0.3,3,0,3.3,0,3.8v19.5C0,23.7,0.3,24,0.8,24h4h18.5h0c0.4,0,0.7-0.3,0.7-0.7v0V3.8v-3C24,0.3,23.7,0,23.3,0z M23,23H1V4h3v18
	h1V1h18V23z"/> </symbol><symbol viewBox="0 0 24 24" id="icon-oil-bottle"><title>oil-bottle</title> <path fill="currentColor" d="M6,3H5V1c0-0.6,0.4-1,1-1h5c0.6,0,1,0.4,1,1v2h-1V1H6V3z M20,10v12c0,1.1-0.9,2-2,2H6c-1.1,0-2-0.9-2-2V6
	c0-1.1,0.9-2,2-2h7c0.1,0,0.2,0,0.3,0.1l6.5,5.5C19.9,9.7,20,9.9,20,10z M19,10.2L12.8,5H6C5.4,5,5,5.4,5,6v16c0,0.6,0.4,1,1,1h12
	c0.6,0,1-0.4,1-1V10.2z M12.4,9.6c0.5,1.1,1,1.8,1.4,2.3c0.7,1,1.2,1.7,1.2,3.6c0,1.7-1.2,3.5-3.5,3.5C9.1,19,8,16.9,8,15.4
	c0-1.8,0.5-2.5,1.2-3.5c0.4-0.5,0.9-1.2,1.4-2.4C10.8,9.2,11.1,9,11.5,9h0C11.9,9,12.2,9.2,12.4,9.6z M11.5,10C10,13.1,9,13,9,15.4
	c0,1,0.7,2.6,2.5,2.6s2.5-1.5,2.5-2.5C14,13,13,13.1,11.5,10z"/> </symbol><symbol viewBox="0 0 9 16" id="icon-pause"><title>pause</title> <path fill="currentColor" d="M0 0h3.429v16h-3.429v-16zM5.714 0h3.429v16h-3.429v-16z"/> </symbol><symbol viewBox="0 0 24 24" id="icon-phone"><title>phone</title><g transform="translate(0, 0)"> <path fill="none" stroke="currentColor" stroke-width="2" stroke-linecap="square" stroke-miterlimit="10" d="M18,23H6
c-1.105,0-2-0.895-2-2V3c0-1.105,0.895-2,2-2h12c1.105,0,2,0.895,2,2v18C20,22.105,19.105,23,18,23z" stroke-linejoin="miter"/> <circle data-color="color-2" data-stroke="none" fill="currentColor" cx="12" cy="19" r="1" stroke-linejoin="miter" stroke-linecap="square"/> </g></symbol><symbol viewBox="0 0 24 24" id="icon-pie-chart"><title>pie-chart</title> <g> <path fill="currentColor" d="M12,0v12h12C24,5.3,18.7,0,12,0z M13,1c5.4,0.5,9.5,4.6,10,10H13V1z M11,2C4.9,2,0,6.9,0,13s4.9,11,11,11
		s11-4.9,11-11H11V2z M20.9,14c-0.5,5-4.8,9-9.9,9C5.5,23,1,18.5,1,13c0-5.2,4-9.4,9-9.9V14H20.9z"/> </g> </symbol><symbol viewBox="0 0 9 16" id="icon-play"><title>play</title> <path fill="currentColor" d="M0 0l9.143 8-9.143 8v-16z"/> </symbol><symbol viewBox="0 0 16 16" id="icon-plus"><title>plus</title> <path fill="currentColor" d="M10 6v-6h-4v6h-6v4h6v6h4v-6h6v-4h-6z"/> </symbol><symbol viewBox="0 0 24 24" id="icon-power-cord"><title>power-cord</title> <path fill="currentColor" d="M9,3H8V0h1V3z M13,0h-1v3h1V0z M12,13H9c-1.7,0-3-1.3-3-3V5c0-0.6,0.4-1,1-1h7c0.6,0,1,0.4,1,1v5
	C15,11.7,13.7,13,12,13z M9,12h3c1.1,0,2-0.9,2-2V5H7v5C7,11.1,7.9,12,9,12z M17,20c0,1.7-1.3,3-3,3c-1.7,0-3-1.3-3-3v-6h-1v6
	c0,2.2,1.8,4,4,4s4-1.8,4-4H17z"/> </symbol><symbol viewBox="0 0 24 24" id="icon-print"><title>print</title> <path fill="currentColor" d="M24,9v9c0,0.5-0.5,1-1,1h-4v-1h4V9H1v9h4v1H1c-0.5,0-1-0.5-1-1V9c0-0.5,0.5-1,1-1h22C23.5,8,24,8.5,24,9z
	 M17.1,16l0.8,7c0.1,0.5-0.3,1-0.9,1H7c-0.5,0-1-0.4-0.9-1l0.8-7C7,15.4,7.5,15,8,15h8C16.5,15,17,15.4,17.1,16z M16.9,23l-0.8-6.9
	L16,16H8l-0.1,0.1L7.1,23H16.9z M9,19h6v-1H9V19z M9,21h6v-1H9V21z M7,1h10v6h1V1c0-0.5-0.5-1-1-1H7C6.5,0,6,0.5,6,1v6h1V1z"/> </symbol><symbol viewBox="0 0 17 16" id="icon-profile"><title>profile</title> <path fill="currentColor" d="M10.9,8.9C12.2,8,13.1,6.6,13.1,5c0-2.6-2.1-4.7-4.7-4.7S3.7,2.4,3.7,5c0,1.6,0.9,3.1,2.1,3.9C2.7,9.7,0.3,12.6,0.3,16l1,0
	c0-3.5,2.9-6.4,6.4-6.4h1.4c3.5,0,6.4,2.9,6.4,6.4l1,0C16.5,12.6,14.1,9.7,10.9,8.9z M4.7,5c0-2,1.7-3.7,3.7-3.7
	c2,0,3.7,1.7,3.7,3.7c0,2-1.7,3.7-3.7,3.7C6.3,8.6,4.7,7,4.7,5z"/> </symbol><symbol viewBox="0 0 6 10" id="icon-question-mark"><title>question-mark</title> <path id="question-mark-_x3F_" d="M1.4,1.6C1,1.7,0.7,1.9,0.4,2V0.6c0.3-0.1,0.6-0.2,1-0.4c0.4-0.1,0.9-0.2,1.4-0.2c0.9,0,1.6,0.2,2.1,0.7
	c0.5,0.5,0.8,1.1,0.8,1.9c0,0.7-0.2,1.3-0.6,1.8C4.8,5,4.2,5.6,3.3,6.1v0.8H1.9V5.3c0.8-0.4,1.3-0.8,1.7-1.1
	c0.4-0.4,0.5-0.8,0.5-1.2c0-0.4-0.1-0.8-0.4-1C3.4,1.6,3,1.5,2.5,1.5C2.1,1.5,1.7,1.5,1.4,1.6L1.4,1.6z M3.5,9.9H1.7V8.1h1.8V9.9z"/> </symbol><symbol viewBox="0 0 31.9 27" id="icon-quote"><title>Quote</title>  <path d="M13.1,26.9H0.8V18c0-3.6,0.3-6.4,0.9-8.5S3.5,5.6,5.2,4s3.9-2.9,6.5-3.9l2.4,5.1c-2.5,0.8-4.2,2-5.3,3.4S7.2,12,7.1,14.4h6
	V26.9z M29.8,26.9H17.4V18c0-3.6,0.3-6.4,0.9-8.5s1.8-3.9,3.5-5.5s3.9-2.9,6.5-3.9l2.4,5.1c-2.5,0.8-4.2,2-5.3,3.4s-1.6,3.4-1.7,5.8
	h6L29.8,26.9L29.8,26.9z"/> </symbol><symbol viewBox="0 0 20.4 16" id="icon-sap"><title>sap</title> <path fill="currentColor" d="M0,0v16h8.5L20.4,0H0z M7.6,14.4h-6V1.6h15.6L7.6,14.4z"/> </symbol><symbol viewBox="0 0 16 16" id="icon-search"><title>search</title> <path fill="currentColor" d="M15.68 13.858l-3.865-3.92c0.655-0.991 1.045-2.208 1.045-3.516 0-3.555-2.882-6.438-6.438-6.438s-6.438 2.882-6.438 6.438c0 3.555 2.882 6.438 6.438 6.438 1.308 0 2.524-0.39 3.54-1.060l3.841 3.88c0.2 0.202 0.477 0.327 0.784 0.327s0.584-0.125 0.784-0.327l0.309-0.221c0.212-0.202 0.344-0.486 0.344-0.801s-0.132-0.599-0.343-0.8zM9.176 9.176c-0.699 0.699-1.665 1.132-2.733 1.132-2.134 0-3.865-1.73-3.865-3.865s1.73-3.865 3.865-3.865c1.067 0 2.033 0.433 2.733 1.132s1.132 1.666 1.132 2.733-0.433 2.034-1.132 2.733z"/> </symbol><symbol viewBox="0 0 24 24" id="icon-settings"><title>settings</title> <path fill="currentColor" d="M23.2,10l-2.6-0.6c-0.2-0.6-0.4-1.1-0.7-1.6l1.4-2.3c0.2-0.4,0.2-0.9-0.2-1.2l-1.4-1.4
	c-0.2-0.2-0.4-0.3-0.7-0.3c-0.2,0-0.4,0-0.5,0.1l-2.3,1.4c-0.5-0.3-1-0.5-1.6-0.7L14,0.8C13.9,0.3,13.5,0,13,0h-2
	c-0.5,0-0.9,0.3-1,0.8L9.4,3.4C8.8,3.6,8.3,3.8,7.8,4.1L5.4,2.7C5.3,2.6,5.1,2.5,4.9,2.5c-0.3,0-0.5,0.1-0.7,0.3L2.8,4.2
	C2.5,4.6,2.4,5.1,2.6,5.5l1.4,2.3c-0.3,0.5-0.5,1-0.7,1.6L0.8,10C0.3,10.1,0,10.5,0,11v2c0,0.5,0.3,0.9,0.8,1l2.6,0.6
	c0.2,0.6,0.4,1.1,0.7,1.6l-1.4,2.3c-0.2,0.4-0.2,0.9,0.2,1.2l1.4,1.4c0.2,0.2,0.4,0.3,0.7,0.3c0.2,0,0.4,0,0.5-0.1l2.3-1.4
	c0.5,0.3,1,0.5,1.6,0.7l0.7,2.6c0.1,0.4,0.5,0.8,1,0.8h2c0.5,0,0.9-0.3,1-0.8l0.6-2.6c0.6-0.2,1.1-0.4,1.6-0.7l2.3,1.4
	c0.2,0.1,0.3,0.1,0.5,0.1c0.3,0,0.5-0.1,0.7-0.3l1.4-1.4c0.3-0.3,0.4-0.8,0.1-1.2l-1.4-2.3c0.3-0.5,0.5-1,0.7-1.6l2.6-0.7
	c0.4-0.1,0.8-0.5,0.8-1v-2C24,10.5,23.7,10.1,23.2,10z M23,13l-2.1,0.5v0l-1.1,0.3c-0.2,0.9-0.5,1.7-1,2.4l1.7,2.8l-1.4,1.4
	l-1.9-1.1l-1-0.6c-0.7,0.5-1.6,0.8-2.4,1L13,23h-2l-0.5-2.1h0l-0.3-1.1c-0.9-0.2-1.7-0.5-2.4-1l-2.8,1.7l-1.4-1.4l1.1-1.9l0.6-1
	c-0.5-0.7-0.8-1.6-1-2.4L1,13v-2l2.1-0.5v0l1.1-0.3c0.2-0.9,0.5-1.7,1-2.4L3.5,4.9l1.4-1.4l1.9,1.1l1,0.6c0.7-0.5,1.6-0.8,2.4-1
	L11,1h2l0.5,2.1h0l0.3,1.1c0.9,0.2,1.7,0.5,2.4,1l0.9-0.6l1.9-1.1l1.4,1.4l-1.1,1.9l-0.6,1c0.5,0.7,0.8,1.6,1,2.4L23,11V13z M12,7
	c-2.8,0-5,2.2-5,5s2.2,5,5,5s5-2.2,5-5S14.8,7,12,7z M12,16c-2.2,0-4-1.8-4-4c0-2.2,1.8-4,4-4s4,1.8,4,4C16,14.2,14.2,16,12,16z"/> </symbol><symbol viewBox="0 0 24 24" id="icon-share"><title>share</title> <path d="M20,9v14c0,0.6-0.4,1-1,1H6c-0.6,0-1-0.4-1-1V9c0-0.6,0.4-1,1-1h5v1H6v14h13V9h-5V8h5C19.6,8,20,8.4,20,9z M12,2.1V14h1V2.1
	l3.7,3.3l0.7-0.7l-4.5-4c-0.2-0.2-0.5-0.2-0.7,0l-4.5,4l0.7,0.7L12,2.1z"/> </symbol><symbol viewBox="0 0 24 24" id="icon-snowflake"><title>snowflake</title> <path d="M17,9.6L13,12l4,2.4l-0.5,0.9l-4-2.4v4.6h-1v-4.6l-4,2.4L7,14.4l4-2.4L7,9.6l0.5-0.9l4,2.4V6.5h1v4.6l4-2.4L17,9.6z
	 M22.1,6.5l-0.5-0.9L19,7.1l0.5,1L22.1,6.5z M17.8,8.8l2.6,1.4l0.5-0.9l-2.4-1.2V5.5h-1v2.9C17.5,8.6,17.6,8.7,17.8,8.8z M1.9,17.5
	l0.5,0.9L5,16.9L4.5,16L1.9,17.5z M6.2,15.2l-2.6-1.4l-0.5,0.9l2.4,1.2v2.6h1v-2.9C6.5,15.4,6.4,15.3,6.2,15.2z M5,7.2L2.4,5.6
	L1.9,6.5L4.5,8L5,7.2z M5.5,8.1L3.2,9.3l0.5,0.9l2.6-1.4c0.1-0.1,0.2-0.2,0.2-0.4V5.5h-1V8.1z M19,16.8l2.6,1.5l0.5-0.9l-2.6-1.5
	L19,16.8z M20.3,13.8l-2.6,1.4c-0.2,0.1-0.3,0.3-0.3,0.4v2.9h1v-2.6l2.3-1.2L20.3,13.8z M12.5,0.5h-1v3h1V0.5z M12,5.5
	c0.1,0,0.2,0,0.3-0.1l2.5-1.5L14.3,3l-2.2,1.3L9.8,3.1L9.2,3.9l2.5,1.5C11.8,5.5,11.9,5.5,12,5.5z M11.5,23.5h1v-3h-1V23.5z
	 M11.7,18.6l-2.5,1.5L9.7,21l2.2-1.3l2.2,1.3l0.5-0.9l-2.5-1.5C12.1,18.5,11.9,18.5,11.7,18.6z"/> </symbol><symbol viewBox="0 0 16 16" id="icon-square"><title>square</title> <path fill="currentColor" d="M0 0h16v16h-16v-16z"/> </symbol><symbol viewBox="0 0 24 24" id="icon-sun"><title>sun</title> <path d="M12,5.5c-3.6,0-6.5,2.9-6.5,6.5s2.9,6.5,6.5,6.5s6.5-2.9,6.5-6.5S15.6,5.5,12,5.5z M12,17.5c-3,0-5.5-2.5-5.5-5.5
	S9,6.5,12,6.5S17.5,9,17.5,12S15,17.5,12,17.5z M23.5,11.5v1h-4v-1H23.5z M4.5,12.5h-4v-1h4V12.5z M12.5,4.5h-1v-4h1V4.5z
	 M11.5,19.5h1v4h-1V19.5z M6.3,7.1L3.5,4.2l0.7-0.7L7,6.3L6.3,7.1z M17.7,16.9l2.8,2.8l-0.7,0.8L17,17.7L17.7,16.9z M6.3,16.9
	L7,17.6l-2.8,2.9l-0.7-0.7L6.3,16.9z M17.7,7.1L17,6.4l2.8-2.9l0.7,0.7L17.7,7.1z"/> </symbol><symbol viewBox="0 0 16 16" id="icon-support"><title>support</title> <g> <path d="M8,1C4.2,1,1,4.2,1,8s3.2,7,7,7s7-3.2,7-7S11.8,1,8,1z M8,12.4c-0.5,0-0.9-0.3-0.9-0.9s0.3-0.9,0.9-0.9s0.9,0.3,0.9,0.9
		S8.5,12.4,8,12.4z M9.3,8.3C8.9,8.6,8.9,8.7,8.9,8.9v0.9H7.1V8.9c0-1.1,0.7-1.7,1.2-2c0.4-0.3,0.5-0.3,0.5-0.6
		c0-0.5-0.3-0.9-0.9-0.9c-0.4,0-0.7,0.3-0.9,0.4L6.8,6.6L5.3,5.7l0.4-0.8C6.2,4.2,7,3.6,8,3.6c1.5,0,2.6,1.1,2.6,2.6
		C10.6,7.5,9.8,8,9.3,8.3z"/> </g> </symbol><symbol viewBox="0 0 24 24" id="icon-trash"><title>trash</title> <path d="M11.5,7h1v13h-1V7z M14.5,20h1V7h-1V20z M8.5,20h1V7h-1V20z M20.5,3v1h-1v19c0,0.6-0.4,1-1,1h-13c-0.6,0-1-0.4-1-1V4h-1V3h4
	V1c0-0.6,0.4-1,1-1h7c0.6,0,1,0.4,1,1v2H20.5z M8.5,3h7V1h-7V3z M18.5,4h-13v19h13V4z"/> </symbol><symbol viewBox="0 0 24 24" id="icon-travel"><title>travel</title> <path fill="currentColor" d="M8,6H7V3c0-0.6,0.4-1,1-1h8c0.6,0,1,0.4,1,1v3h-1V3H8V6z M24,8v15c0,0.6-0.4,1-1,1H1c-0.6,0-1-0.4-1-1V8
	c0-0.6,0.4-1,1-1h22C23.6,7,24,7.4,24,8z M5,8H1v15h4V8z M18,8H6v15h12V8z M23,8h-4v15h4V8z"/> </symbol><symbol viewBox="0 0 22 16" id="icon-triangle-down"><title>triangle-down</title> <path fill="currentColor" d="M0 0l10.894 16 10.723-16h-21.617z"/> </symbol><symbol viewBox="0 0 22 16" id="icon-triangle-up"><title>triangle-up</title> <path fill="currentColor" d="M0 16l10.894-16 10.723 16z"/> </symbol><symbol viewBox="0 0 24 24" id="icon-truck"><title>truck</title> <path fill="currentColor" d="M23,1v19h-1V1H2v19H1V1c0-0.6,0.4-1,1-1h20C22.6,0,23,0.4,23,1z M7,22c0,0.6-0.4,1-1,1s-1-0.4-1-1v-1H4v1
	c0,1.1,0.9,2,2,2c1.1,0,2-0.9,2-2v-1H7V22z M19,22c0,0.6-0.4,1-1,1s-1-0.4-1-1v-1h-1v1c0,1.1,0.9,2,2,2c1.1,0,2-0.9,2-2v-1h-1V22z
	 M21,14v5c0,0.6-0.4,1-1,1H4c-0.6,0-1-0.4-1-1v-5c0-1.3,0.8-2.4,2-2.8V7c0-0.4,0.1-0.8,0.3-1.1c0.1-0.2,0.3-0.4,0.5-0.5
	C6.2,5.1,6.6,5,7,5h10c0.4,0,0.8,0.1,1.1,0.3c0.2,0.1,0.4,0.3,0.5,0.5C18.9,6.2,19,6.6,19,7v4.2C20.2,11.6,21,12.7,21,14z M20,14
	c0-1.1-0.9-2-2-2V7c0-0.6-0.4-1-1-1H7C6.4,6,6,6.4,6,7v5c-1.1,0-2,0.9-2,2v5h16V14z M17,12H7V8c0-0.6,0.4-1,1-1h8c0.6,0,1,0.4,1,1
	V12z M16,8H8v3h8V8z M9,15.5C9,16.3,8.3,17,7.5,17S6,16.3,6,15.5S6.7,14,7.5,14S9,14.7,9,15.5z M18,15.5c0,0.8-0.7,1.5-1.5,1.5
	S15,16.3,15,15.5s0.7-1.5,1.5-1.5S18,14.7,18,15.5z"/> </symbol><symbol viewBox="0 0 24 24" id="icon-unlock"><title>Artboard 1</title> <path fill="none" stroke="currentColor" d="M16.6,4A5.05,5.05,0,0,0,12,1h0A5,5,0,0,0,7,6V9" style="stroke-linecap:round;stroke-miterlimit:10;stroke-width:2px"/> <rect fill="none" stroke="currentColor" x="4" y="9" width="16" height="14" rx="1" ry="1" style="stroke-linecap:square;stroke-miterlimit:10;stroke-width:2px"/> </symbol><symbol viewBox="0 0 24 24" id="icon-upload"><title>upload</title> <path d="M21.5,23v1h-19v-1H21.5z M11.5,1.7V21h1V1.7l4.6,4.6l0.7-0.7l-5.4-5.5C12.3,0.1,12.1,0,12,0s-0.3,0.1-0.4,0.1L6.1,5.6
	l0.7,0.7L11.5,1.7z"/> </symbol><symbol viewBox="0 0 24 24" id="icon-user"><title>user</title> <path fill="currentColor" d="M15.7,15c3.5,0,6.3,2.8,6.3,6.3V23c0,0,0,0,0,0H2c0,0,0,0,0,0v-1.6C2,17.8,4.8,15,8.3,15H15.7 M15.7,14H8.3
	C4.3,14,1,17.3,1,21.3V23c0,0.6,0.5,1,1,1H22c0.6,0,1-0.5,1-1v-1.6C23,17.3,19.7,14,15.7,14L15.7,14z M12,1c3,0,5.5,2.5,5.5,5.5
	S15,12,12,12S6.5,9.5,6.5,6.5S9,1,12,1 M12,0C8.4,0,5.5,2.9,5.5,6.5S8.4,13,12,13s6.5-2.9,6.5-6.5S15.6,0,12,0L12,0z"/> </symbol><symbol viewBox="0 0 15 14" id="icon-warning"><title>warning</title> <path fill="currenColor" d="M13.6,10.7L9.2,2.9c-0.9-1.7-2.5-1.7-3.4,0l-4.4,7.8c-0.9,1.7-0.2,3,1.8,3h8.7C13.8,13.7,14.6,12.4,13.6,10.7z M7.5,12
	c-0.5,0-0.9-0.4-0.9-0.9s0.4-0.9,0.9-0.9s0.9,0.4,0.9,0.9S8,12,7.5,12z M6.6,5.1h1.7v4.3H6.6V5.1z"/> </symbol><symbol viewBox="0 0 24 24" id="icon-x"><title>x</title><g transform="translate(0, 0)"> <line fill="none" stroke="currentColor" stroke-width="4" stroke-linecap="square" stroke-miterlimit="10" x1="19" y1="5" x2="5" y2="19" stroke-linejoin="miter"/> <line fill="none" stroke="currentColor" stroke-width="4" stroke-linecap="square" stroke-miterlimit="10" x1="19" y1="19" x2="5" y2="5" stroke-linejoin="miter"/> </g></symbol><symbol viewBox="0 0 24 24" id="icon-yammer"><title>yammer</title> <path fill="currentColor" class="st0" d="M12.8,6l-3.7,9.5c-0.7,1.8-1.3,3.7-3.7,3.8c-0.4,0-1,0-1.3-0.2c-0.6-0.3-0.5-1.1,0-1.4
		c0.2-0.1,0.4-0.1,0.6-0.1c1.7,0.1,2.1-0.9,2.6-2.3L3.5,6C3.3,5.5,3.4,5,3.9,4.8C4.6,4.5,5,4.8,5.3,5.4c1,2.5,2,5.1,3,7.6
		c0,0,0.1,0.1,0.1,0l0.9-2.3c0.7-1.7,1.3-3.4,2-5.1c0.1-0.4,0.4-0.7,0.9-0.7c0.2,0,0.3,0,0.4,0.1C12.8,5.1,13,5.5,12.8,6L12.8,6z
		 M0,22.8C0,23.5,0.5,24,1.2,24h21.6c0.7,0,1.2-0.5,1.2-1.2V1.2C24,0.5,23.5,0,22.8,0H1.2C0.5,0,0,0.5,0,1.2V22.8z M13.5,9.6
		c0.4-0.5,3.5-2.9,4.1-3.1c0.9-0.2,1.5,0.8,0.8,1.5c-0.4,0.4-4,1.9-4.6,2c-0.2,0-0.4,0.1-0.4,0C13.3,9.9,13.4,9.7,13.5,9.6L13.5,9.6
		z M20,11.3c0.4,0.1,0.6,0.5,0.6,0.8v0l0,0c0,0.3-0.2,0.7-0.6,0.8c-0.5,0.1-3.3-0.1-4.6-0.5c-0.4-0.1-0.6-0.2-0.7-0.4
		c0-0.2,0.3-0.3,0.7-0.4C16.7,11.5,19.5,11.2,20,11.3L20,11.3z M13.4,14.4c0.1-0.1,0.3-0.1,0.4,0c0.7,0.1,4.2,1.6,4.6,2
		c0.7,0.7,0.1,1.7-0.8,1.5c-0.6-0.1-3.7-2.6-4.1-3.1C13.4,14.7,13.3,14.5,13.4,14.4L13.4,14.4z"/> </symbol></svg>