<?xml version="1.0" encoding="UTF-8"?>
<svg width="89px" height="35px" viewBox="0 0 89 35" version="1.1" xmlns="http://www.w3.org/2000/svg" xmlns:xlink="http://www.w3.org/1999/xlink">
    <!-- Generator: Sketch 48.2 (47327) - http://www.bohemiancoding.com/sketch -->
    <title>logo-white</title>
    <desc>Created with Sketch.</desc>
    <defs></defs>
    <g id="Artboard" stroke="none" stroke-width="1" fill="none" fill-rule="evenodd" transform="translate(-80.000000, -465.000000)">
        <g id="logo-white" transform="translate(80.000000, 465.000000)" fill="#FFFFFF">
            <path d="M45.55,26.4 C45.4033326,26.4 45.2750005,26.3450005 45.165,26.235 C45.0549994,26.1249994 45,25.9966674 45,25.85 L45,11.572 C45,11.4106659 45.0513328,11.2750006 45.154,11.165 C45.2566672,11.0549995 45.3886659,11 45.55,11 L48.036,11 C48.373335,11 48.6226659,11.1393319 48.784,11.418 L53.976,19.624 L53.976,11.572 C53.976,11.4106659 54.0273328,11.2750006 54.13,11.165 C54.2326672,11.0549995 54.3646659,11 54.526,11 L57.32,11 C57.4813341,11 57.6133328,11.0549995 57.716,11.165 C57.8186672,11.2750006 57.87,11.4106659 57.87,11.572 L57.87,25.828 C57.87,25.9893341 57.8186672,26.1249994 57.716,26.235 C57.6133328,26.3450005 57.4813341,26.4 57.32,26.4 L54.834,26.4 C54.496665,26.4 54.2473341,26.2606681 54.086,25.982 L48.916,18.106 L48.916,25.85 C48.916,26.0113341 48.8610005,26.1433328 48.751,26.246 C48.6409994,26.3486672 48.5053341,26.4 48.344,26.4 L45.55,26.4 Z M61.412,26.4 C61.2653326,26.4 61.1370005,26.3450005 61.027,26.235 C60.9169994,26.1249994 60.862,25.9966674 60.862,25.85 L60.862,11.572 C60.862,11.4106659 60.9133328,11.2750006 61.016,11.165 C61.1186672,11.0549995 61.2506659,11 61.412,11 L71.796,11 C71.9573341,11 72.0929995,11.0549995 72.203,11.165 C72.3130005,11.2750006 72.368,11.4106659 72.368,11.572 L72.368,13.75 C72.368,13.9113341 72.3130005,14.0433328 72.203,14.146 C72.0929995,14.2486672 71.9573341,14.3 71.796,14.3 L64.844,14.3 L64.844,17.094 L71.312,17.094 C71.4733341,17.094 71.6089994,17.1489994 71.719,17.259 C71.8290005,17.3690005 71.884,17.5046659 71.884,17.666 L71.884,19.668 C71.884,19.8293341 71.8290005,19.9649995 71.719,20.075 C71.6089994,20.1850005 71.4733341,20.24 71.312,20.24 L64.844,20.24 L64.844,23.1 L71.972,23.1 C72.1333341,23.1 72.2689994,23.1549994 72.379,23.265 C72.4890005,23.3750005 72.544,23.5106659 72.544,23.672 L72.544,25.85 C72.544,26.0113341 72.4890005,26.1433328 72.379,26.246 C72.2689994,26.3486672 72.1333341,26.4 71.972,26.4 L61.412,26.4 Z M74.172,26.4 C74.0546661,26.4 73.9483338,26.3523338 73.853,26.257 C73.7576662,26.1616662 73.71,26.0553339 73.71,25.938 C73.71,25.8499996 73.7319998,25.7620004 73.776,25.674 L78.572,18.546 L74.15,11.726 C74.1059998,11.6379996 74.084,11.5500004 74.084,11.462 C74.084,11.3446661 74.1316662,11.2383338 74.227,11.143 C74.3223338,11.0476662 74.4286661,11 74.546,11 L77.912,11 C78.2346683,11 78.4986656,11.1613317 78.704,11.484 L81.19,15.312 L83.764,11.484 C83.9693344,11.1613317 84.2259985,11 84.534,11 L87.746,11 C87.8633339,11 87.9696662,11.0476662 88.065,11.143 C88.1603338,11.2383338 88.208,11.3446661 88.208,11.462 C88.208,11.5500004 88.1860002,11.6379996 88.142,11.726 L83.676,18.502 L88.516,25.674 C88.5600002,25.7620004 88.582,25.8499996 88.582,25.938 C88.582,26.0553339 88.5343338,26.1616662 88.439,26.257 C88.3436662,26.3523338 88.2373339,26.4 88.12,26.4 L84.644,26.4 C84.3213317,26.4 84.0646676,26.2533348 83.874,25.96 L81.058,21.868 L78.308,25.96 C78.1173324,26.2533348 77.8606683,26.4 77.538,26.4 L74.172,26.4 Z" id="Nex"></path>
            <g id="Page-1">
                <path d="M17.0723438,8.43758013 L0,18.555609 L0,10.1202724 L17.0619531,0 L34.1665625,10.1073718 L34.1665625,18.533734 L17.0723438,8.43758013 Z M31.4321875,28.6842949 L17.0619531,20.1810337 L2.734375,28.6842388 L0,27.0585337 L0,21.8636699 L17.0619531,11.745641 L34.1665625,21.8636699 L34.1665625,27.0366587 L31.4321875,28.6842949 Z M17.0723437,32.1394231 L12.7506094,34.7094551 L5.61990625,30.5027244 L17.061625,23.7040865 L28.546,30.5027244 L21.4152969,34.7094551 L17.0723437,32.1394231 Z" id="Combined-Shape"></path>
            </g>
        </g>
    </g>
</svg>